<?xml version="1.0" standalone="no"?>
<!DOCTYPE svg PUBLIC "-//W3C//DTD SVG 1.1//EN" "http://www.w3.org/Graphics/SVG/1.1/DTD/svg11.dtd" >
<svg xmlns="http://www.w3.org/2000/svg">
    <metadata></metadata>
    <defs>
        <font id="tele-groteskultregular" horiz-adv-x="1024" vert-adv-y="2048" >
            <font-face units-per-em="2048" ascent="1679" descent="-369" />
            <missing-glyph horiz-adv-x="300" />
            <glyph horiz-adv-x="0" vert-adv-y="0" />
            <glyph horiz-adv-x="682" />
            <glyph unicode=" " horiz-adv-x="300" vert-adv-y="1433" />
            <glyph unicode="!" horiz-adv-x="546" vert-adv-y="1433" d="M408 1365v-364l-67 -585h-135l-66 581v368h268zM423 294v-294h-300v294h300z" />
            <glyph unicode="&#x22;" horiz-adv-x="803" vert-adv-y="1433" d="M312 845h-201l-56 520h313zM693 845h-201l-56 520h313z" />
            <glyph unicode="#" horiz-adv-x="1161" vert-adv-y="1433" d="M76 430v160h200l30 208h-178v160h200l48 339h195l-48 -339h187l48 339h195l-47 -339h180v-160h-203l-29 -208h180v-160h-203l-50 -362h-196l51 362h-187l-51 -362h-195l51 362h-178zM688 798h-187l-29 -208h187z" />
            <glyph unicode="$" horiz-adv-x="1056" vert-adv-y="1433" d="M445 1447h160v-98q143 -22 236 -94q87 -68 121 -166q11 -31 20 -84h-259q-10 54 -35 82q-27 31 -83 50v-321q410 -132 410 -424q0 -229 -218 -330q-81 -38 -192 -50v-94h-160v95q-165 24 -264 118q-117 111 -140 281h268q16 -78 51 -119q30 -36 85 -60v362 q-105 39 -158 67q-207 112 -207 333q0 122 66 210q74 99 210 133q34 8 89 15v94zM605 225q57 16 89 45q54 49 54 119q0 102 -143 167v-331zM445 1145q-123 -35 -123 -142q0 -60 47 -102q24 -20 76 -45v289z" />
            <glyph unicode="%" horiz-adv-x="1801" vert-adv-y="1433" d="M379 1383q149 0 246 -106q109 -120 109 -321q0 -174 -82 -290q-99 -139 -273 -139q-179 0 -279 142q-80 114 -80 292q0 195 104 311q100 111 255 111zM378 1211q-73 0 -113 -67q-45 -76 -45 -184q0 -119 45 -194q40 -67 114 -67q69 0 107 62q48 78 48 197q0 111 -44 186 q-40 67 -112 67zM697 0h-179l588 1365h176zM1426 837q148 0 246 -106q109 -118 109 -321q0 -174 -82 -290q-99 -139 -273 -139q-178 0 -279 142q-80 114 -80 292q0 195 104 311q100 111 255 111zM1425 665q-73 0 -113 -67q-45 -76 -45 -184q0 -119 45 -194q40 -67 114 -67 q69 0 107 62q48 78 48 197q0 112 -44 186q-40 67 -112 67z" />
            <glyph unicode="&#x26;" horiz-adv-x="1127" vert-adv-y="1433" d="M1114 0h-275l-37 51q-127 -80 -304 -80q-198 0 -321 103q-136 113 -136 292q0 108 57 209q43 76 136 151q15 12 52 40q-49 70 -67 101q-59 100 -59 209q0 157 123 250q91 68 223 68q151 0 246 -86q92 -84 92 -207q0 -155 -160 -298q-34 -32 -93 -78l227 -314 q22 70 25 156h234q-13 -111 -36 -186q-26 -84 -80 -169zM415 588q-97 -86 -97 -204q0 -100 60 -160q56 -56 146 -56q81 0 158 49zM468 898q4 4 9 8q123 94 123 200q0 43 -25 74q-27 33 -72 33q-39 0 -67 -28q-35 -36 -35 -104q0 -83 67 -183z" />
            <glyph unicode="'" horiz-adv-x="422" vert-adv-y="1433" d="M312 845h-201l-56 520h313z" />
            <glyph unicode="(" horiz-adv-x="564" vert-adv-y="1433" d="M482 -355h-209q-59 105 -111 247q-109 294 -109 607q0 305 102 603q56 165 116 263h208q-9 -23 -48 -118q-66 -159 -103 -392q-26 -161 -26 -348q0 -471 180 -862z" />
            <glyph unicode=")" horiz-adv-x="564" vert-adv-y="1433" d="M82 -355q180 392 180 862q0 333 -93 639q-2 6 -84 219h207q69 -112 130 -303q89 -277 89 -563q0 -334 -126 -653q-46 -114 -95 -201h-208z" />
            <glyph unicode="*" horiz-adv-x="819" vert-adv-y="1433" d="M760 1055l-233 -73l147 -196l-123 -93l-145 202l-144 -200l-124 93l154 194l-233 73l48 146l228 -83l-4 247h157l-8 -247l229 83z" />
            <glyph unicode="+" vert-adv-y="1433" d="M41 783h374v348h195v-348h373v-187h-373v-348h-195v348h-374v187z" />
            <glyph unicode="," horiz-adv-x="546" vert-adv-y="1433" d="M423 294v-228q0 -136 -37 -213q-35 -73 -119 -124q-59 -37 -144 -48v143q120 32 127 176h-127v294h300z" />
            <glyph unicode="-" horiz-adv-x="453" vert-adv-y="1433" d="M453 633v-246h-453v246h453z" />
            <glyph unicode="." horiz-adv-x="546" vert-adv-y="1433" d="M423 294v-294h-300v294h300z" />
            <glyph unicode="/" horiz-adv-x="768" vert-adv-y="1433" d="M179 -355h-227l530 1720h221z" />
            <glyph unicode="0" horiz-adv-x="1000" vert-adv-y="1433" d="M502 1394q132 0 233 -84q197 -162 197 -634q0 -326 -108 -506q-118 -199 -320 -199q-229 0 -346 231q-90 176 -90 483q0 333 109 513q120 196 325 196zM498 1169q-161 0 -161 -486q0 -230 34 -346q41 -141 131 -141q161 0 161 482q0 235 -34 351q-41 140 -131 140z" />
            <glyph unicode="1" horiz-adv-x="1000" vert-adv-y="1433" d="M381 0v960q-44 -38 -95 -52q-34 -9 -115 -10v206q144 5 205 80q43 52 68 181h206v-1365h-269z" />
            <glyph unicode="2" horiz-adv-x="1000" vert-adv-y="1433" d="M905 241v-241h-845q4 221 71 357q55 113 176 215q35 31 167 125q106 77 145 145q39 67 39 144q0 70 -36 114q-43 55 -119 55q-87 0 -128 -90q-19 -41 -24 -100h-266q11 171 105 288q116 143 314 143q193 0 307 -117q105 -107 105 -277q0 -182 -117 -309 q-72 -78 -231 -187q-134 -93 -175 -145q-42 -53 -50 -120h562z" />
            <glyph unicode="3" horiz-adv-x="1000" vert-adv-y="1433" d="M347 996h-261q5 154 81 253q111 145 329 145q181 0 289 -105q105 -103 105 -267q0 -127 -68 -218q-36 -49 -104 -78q80 -27 129 -84q83 -97 83 -247q0 -181 -120 -301q-123 -123 -327 -123q-193 0 -308 106q-117 108 -117 304h263q1 -64 25 -106q40 -70 134 -70 q79 0 123 56q46 58 46 152q0 96 -52 148q-47 49 -153 49h-40v197h63q68 0 114 51q47 52 47 143q0 79 -41 124q-39 44 -105 44q-130 0 -135 -173z" />
            <glyph unicode="4" horiz-adv-x="1000" vert-adv-y="1433" d="M796 0h-261v294h-475v250l486 821h250v-850h141v-221h-141v-294zM535 515v473l-252 -473h252z" />
            <glyph unicode="5" horiz-adv-x="1000" vert-adv-y="1433" d="M179 1365h661v-238h-450l-42 -281q82 69 196 69q159 0 262 -105q117 -120 117 -335q0 -232 -141 -377q-123 -127 -311 -127q-124 0 -227 52q-185 95 -195 319h269q6 -49 24 -78q43 -68 127 -68q95 0 141 90q36 70 36 167q0 104 -37 177q-42 85 -134 85q-64 0 -106 -44 q-22 -24 -45 -68h-240z" />
            <glyph unicode="6" horiz-adv-x="1000" vert-adv-y="1433" d="M909 1056h-261q-27 129 -122 129q-166 0 -192 -386q93 117 232 117q162 0 266 -123q110 -129 110 -336q0 -228 -135 -365q-119 -121 -288 -121q-137 0 -243 81q-210 159 -210 596q0 383 144 580q122 166 320 166q208 0 312 -153q52 -74 67 -185zM510 711q-76 0 -120 -87 q-39 -77 -39 -171q0 -97 39 -173q45 -86 124 -86q67 0 111 71q48 77 48 185q0 107 -44 181q-46 80 -119 80z" />
            <glyph unicode="7" horiz-adv-x="1000" vert-adv-y="1433" d="M109 1365h783v-225q-99 -142 -144 -230q-126 -247 -177 -553q-26 -154 -36 -357h-280q6 322 156 702q110 282 220 413h-522v250z" />
            <glyph unicode="8" horiz-adv-x="1000" vert-adv-y="1433" d="M281 732q-179 80 -179 301q0 173 126 272q115 89 274 89q171 0 288 -103q108 -94 108 -255q0 -126 -68 -216q-41 -55 -111 -88q224 -84 224 -345q0 -188 -122 -301q-122 -115 -322 -115q-196 0 -319 108t-123 298q0 170 100 277q49 52 124 78zM499 1189q-62 0 -98 -41 q-46 -52 -46 -139q0 -77 33 -133q37 -62 115 -62q58 0 93 40q49 56 49 154q0 87 -39 134t-107 47zM498 630q-84 0 -131 -75q-38 -63 -38 -148q0 -94 43 -158q47 -69 131 -69q82 0 126 70q42 66 42 152q0 95 -43 159q-46 69 -130 69z" />
            <glyph unicode="9" horiz-adv-x="1000" vert-adv-y="1433" d="M91 309h261q27 -128 123 -128q103 0 151 153q32 101 40 233q-92 -117 -232 -117q-162 0 -267 123q-109 129 -109 337q0 227 133 363q117 121 284 121q138 0 246 -83q213 -162 213 -607q0 -377 -144 -570q-121 -163 -319 -163q-208 0 -313 153q-52 75 -67 185zM487 1171 q-68 0 -112 -70q-48 -77 -48 -181q0 -108 44 -185q45 -80 119 -80q77 0 120 88q39 77 39 173t-39 170q-45 85 -123 85z" />
            <glyph unicode=":" horiz-adv-x="546" vert-adv-y="1433" d="M423 942v-294h-300v294h300zM423 294v-294h-300v294h300z" />
            <glyph unicode=";" horiz-adv-x="546" vert-adv-y="1433" d="M423 294v-228q0 -136 -37 -213q-35 -73 -119 -124q-59 -37 -144 -48v143q120 32 127 176h-127v294h300zM423 942v-294h-300v294h300z" />
            <glyph unicode="&#x3c;" vert-adv-y="1433" d="M955 1277v-304l-564 -290l564 -291v-303l-887 467v256z" />
            <glyph unicode="=" vert-adv-y="1433" d="M41 954h942v-187h-942v187zM41 612h942v-187h-942v187z" />
            <glyph unicode="&#x3e;" vert-adv-y="1433" d="M69 1277l887 -466v-255l-887 -467v303l564 291l-564 290v304z" />
            <glyph unicode="?" horiz-adv-x="957" vert-adv-y="1433" d="M86 927l1 15q7 171 76 280q111 176 335 176q178 0 283 -110q106 -111 106 -282q0 -130 -62 -217q-49 -66 -126 -131q-48 -39 -63 -63q-36 -56 -39 -130q-2 -27 -2 -51h-234q1 9 1 16q2 164 35 235q24 52 134 159q60 59 77 106q13 39 13 80q0 61 -28 101q-35 51 -98 51 q-147 0 -156 -235h-253zM628 294v-294h-300v294h300z" />
            <glyph unicode="@" horiz-adv-x="1509" vert-adv-y="1433" d="M961 982h183l-80 -403q-6 -28 -6 -79q0 -25 22 -25q56 0 126 74q110 116 110 294q0 187 -130 303t-330 116q-253 0 -430 -187q-181 -192 -181 -480q0 -216 118 -348q130 -146 382 -146q195 0 360 73q15 7 105 50l53 -136q-62 -30 -82 -38q-194 -83 -444 -83 q-316 0 -491 167q-181 173 -181 458q0 231 123 435q114 189 315 286q168 83 351 83q251 0 425 -139q99 -79 151 -191q48 -104 48 -223q0 -174 -97 -317q-76 -111 -183 -159q-69 -31 -138 -31q-91 0 -147 66q-93 -76 -197 -76q-119 0 -193 84q-69 80 -69 208q0 163 102 280 q93 106 234 106q95 0 164 -61zM816 864q-79 0 -128 -83q-43 -70 -43 -156q0 -61 25 -106q26 -49 78 -49q80 0 128 90q38 71 38 161q0 62 -24 100q-26 43 -74 43z" />
            <glyph unicode="A" horiz-adv-x="1157" vert-adv-y="1433" d="M429 1365h300l432 -1365h-305l-85 305h-389l-86 -305h-300zM445 526h265l-132 471z" />
            <glyph unicode="B" horiz-adv-x="1146" vert-adv-y="1433" d="M106 0v1365h487q145 0 224 -27q114 -40 169 -130q49 -79 49 -176q0 -201 -196 -292q249 -84 249 -338q0 -222 -168 -333q-105 -69 -281 -69h-533zM399 813h131q108 0 154 33q62 46 62 130q0 94 -75 134q-40 22 -141 22h-131v-319zM399 233h158q123 0 174 41q64 51 64 148 q0 113 -85 159q-50 27 -165 27h-146v-375z" />
            <glyph unicode="C" horiz-adv-x="1200" vert-adv-y="1433" d="M866 529h293q-16 -217 -122 -363q-145 -199 -408 -199q-249 0 -395 171q-177 209 -177 541q0 326 171 530q157 187 408 187q269 0 419 -216q85 -123 96 -274h-290q-14 79 -43 129q-64 111 -186 111q-136 0 -208 -129q-74 -134 -74 -335q0 -204 77 -340q70 -125 202 -125 q114 0 175 99q46 76 62 213z" />
            <glyph unicode="D" horiz-adv-x="1217" vert-adv-y="1433" d="M106 0v1365h421q278 0 437 -148q195 -180 195 -530q0 -342 -184 -530q-100 -103 -231 -134q-93 -23 -218 -23h-420zM399 250h131q156 0 227 74q109 115 109 364q0 206 -92 323q-81 104 -252 104h-123v-865z" />
            <glyph unicode="E" horiz-adv-x="1065" vert-adv-y="1433" d="M106 0v1365h871v-250h-578v-292h528v-238h-528v-335h590v-250h-883z" />
            <glyph unicode="F" horiz-adv-x="975" vert-adv-y="1433" d="M106 0v1365h826v-250h-537v-318h465v-238h-465v-559h-289z" />
            <glyph unicode="G" horiz-adv-x="1251" vert-adv-y="1433" d="M1160 0h-215v154q-56 -72 -98 -106q-100 -81 -240 -81q-257 0 -406 207q-144 200 -144 501q0 302 151 504q162 218 431 218q229 0 377 -170q95 -110 120 -246q4 -22 9 -67h-285q-15 84 -48 134q-63 99 -177 99q-138 0 -212 -131q-73 -127 -73 -337q0 -224 82 -351 q75 -115 210 -115q124 0 194 105q50 75 59 198h-245v221h510v-737z" />
            <glyph unicode="H" horiz-adv-x="1234" vert-adv-y="1433" d="M106 0v1365h293v-519h435v519h293v-1365h-293v596h-435v-596h-293z" />
            <glyph unicode="I" horiz-adv-x="506" vert-adv-y="1433" d="M106 0v1365h293v-1365h-293z" />
            <glyph unicode="J" horiz-adv-x="634" vert-adv-y="1433" d="M0 -19v233q60 -15 100 -15q103 0 136 112q15 54 15 236v818h293v-846q0 -170 -22 -261q-70 -291 -393 -291q-58 0 -129 14z" />
            <glyph unicode="K" horiz-adv-x="1160" vert-adv-y="1433" d="M106 0v1365h293v-516l406 516h327l-465 -563l503 -802h-328l-360 576l-83 -100v-476h-293z" />
            <glyph unicode="L" horiz-adv-x="987" vert-adv-y="1433" d="M106 0v1365h293v-1111h536v-254h-829z" />
            <glyph unicode="M" horiz-adv-x="1484" vert-adv-y="1433" d="M106 0v1365h397l243 -935l237 935h394v-1365h-281v949l-233 -949h-238l-238 937v-937h-281z" />
            <glyph unicode="N" horiz-adv-x="1218" vert-adv-y="1433" d="M106 0v1365h296l428 -878v878h281v-1365h-293l-431 877v-877h-281z" />
            <glyph unicode="O" horiz-adv-x="1278" vert-adv-y="1433" d="M642 1396q243 0 400 -176q179 -199 179 -538q0 -290 -135 -485q-80 -115 -202 -176q-109 -54 -242 -54q-290 0 -453 235q-132 190 -132 490q0 326 171 520q162 184 414 184zM640 1146q-136 0 -210 -127q-80 -138 -80 -329q0 -210 79 -346q36 -62 106 -100q51 -27 108 -27 q83 0 150 58t104 184q31 106 31 227q0 198 -78 333q-74 127 -210 127z" />
            <glyph unicode="P" horiz-adv-x="1081" vert-adv-y="1433" d="M106 0v1365h433q162 0 247 -30q125 -46 194 -159q59 -98 59 -238q0 -235 -167 -360q-116 -88 -328 -88h-145v-490h-293zM399 728h142q117 0 162 55q43 53 43 141q0 100 -61 151q-47 40 -158 40h-128v-387z" />
            <glyph unicode="Q" horiz-adv-x="1278" vert-adv-y="1433" d="M1195 15l-140 -138l-159 168q-130 -78 -270 -78q-179 0 -324 115q-245 193 -245 601q0 332 171 529q160 184 413 184q245 0 401 -176q179 -201 179 -537q0 -253 -117 -432q-24 -36 -60 -79zM707 525l156 -163q65 145 65 321q0 199 -78 336q-72 127 -210 127 q-136 0 -210 -127q-80 -137 -80 -335q0 -209 79 -350q36 -64 106 -103q51 -28 109 -28q39 0 86 19l-159 169z" />
            <glyph unicode="R" horiz-adv-x="1195" vert-adv-y="1433" d="M106 0v1365h525q206 0 319 -90q129 -103 129 -291q0 -155 -91 -261q-40 -46 -105 -78q86 -30 129 -104q30 -51 43 -142q7 -45 18 -205q7 -101 22 -144q7 -20 25 -50h-302q-15 35 -20 78q-3 19 -14 176q-10 134 -36 189q-30 66 -92 84q-32 9 -89 9h-168v-536h-293z M399 757h161q133 0 183 56q43 49 43 136q0 105 -72 154q-43 29 -148 29h-167v-375z" />
            <glyph unicode="S" horiz-adv-x="1042" vert-adv-y="1433" d="M41 399h295q12 -80 37 -119q52 -80 150 -80q87 0 135 54q42 46 42 116q0 79 -67 134q-32 26 -81 47q-14 6 -101 37q-168 59 -243 118q-149 118 -149 309q0 164 104 267q116 114 321 114q256 0 384 -175q60 -82 79 -216h-286q-10 79 -50 115q-48 42 -129 42 q-69 0 -108 -33q-45 -37 -45 -105q0 -77 68 -124q50 -36 198 -84q173 -56 268 -131q138 -110 138 -296t-128 -302q-133 -120 -355 -120q-265 0 -395 199q-66 102 -82 233z" />
            <glyph unicode="T" horiz-adv-x="1026" vert-adv-y="1433" d="M366 0v1115h-331v250h957v-250h-333v-1115h-293z" />
            <glyph unicode="U" horiz-adv-x="1196" vert-adv-y="1433" d="M90 1365h281v-795q0 -195 54 -272q58 -81 178 -81q130 0 177 111q33 76 33 243v794h293v-779q0 -184 -26 -279q-45 -163 -162 -252q-116 -88 -321 -88q-294 0 -421 198q-55 87 -74 209q-12 78 -12 216v775z" />
            <glyph unicode="V" horiz-adv-x="1069" vert-adv-y="1433" d="M695 0h-326l-373 1365h308l235 -984l235 984h299z" />
            <glyph unicode="W" horiz-adv-x="1542" vert-adv-y="1433" d="M0 1365h294l162 -936l176 936h279l174 -938l165 938h292l-308 -1365h-293l-172 927l-169 -927h-296z" />
            <glyph unicode="X" horiz-adv-x="1091" vert-adv-y="1433" d="M15 1365h332l204 -415l207 415h316l-365 -651l399 -714h-339l-227 450l-233 -450h-325l402 714z" />
            <glyph unicode="Y" horiz-adv-x="1131" vert-adv-y="1433" d="M-4 1365h326l246 -540l246 540h321l-423 -837v-528h-293v532z" />
            <glyph unicode="Z" horiz-adv-x="1056" vert-adv-y="1433" d="M33 0v238l613 877h-569v250h924v-222l-620 -889h638v-254h-986z" />
            <glyph unicode="[" horiz-adv-x="580" vert-adv-y="1433" d="M519 1365v-197h-203v-1326h203v-197h-433v1720h433z" />
            <glyph unicode="\" horiz-adv-x="768" vert-adv-y="1433" d="M590 -355l-525 1720h222l529 -1720h-226z" />
            <glyph unicode="]" horiz-adv-x="580" vert-adv-y="1433" d="M61 1365h433v-1720h-433v197h203v1326h-203v197z" />
            <glyph unicode="^" vert-adv-y="1433" d="M301 718h-270l311 655h339l311 -655h-270l-210 449z" />
            <glyph unicode="_" vert-adv-y="1433" d="M41 -109h942v-187h-942v187z" />
            <glyph unicode="`" vert-adv-y="1433" d="M241 1365h221l183 -273h-205z" />
            <glyph unicode="a" horiz-adv-x="980" vert-adv-y="1433" d="M962 190v-178q-53 -24 -113 -24q-121 0 -184 102q-47 -49 -85 -71q-82 -48 -202 -48q-137 0 -218 64q-98 77 -98 212q0 148 111 234q82 64 238 81q68 7 207 11v75q0 147 -125 147q-117 0 -128 -143h-268q8 149 104 231q103 88 293 88q226 0 328 -108q53 -55 65 -147 q4 -35 4 -141v-315q0 -54 12 -67q13 -14 29 -14q9 0 30 11zM618 429q-98 -4 -153 -19q-122 -32 -122 -141q0 -50 27 -79q24 -26 69 -26q93 0 145 88q34 56 34 127v50z" />
            <glyph unicode="b" horiz-adv-x="1028" vert-adv-y="1433" d="M90 0v1365h281v-502q96 108 237 108q112 0 205 -69q170 -126 170 -420q0 -208 -92 -348q-107 -163 -293 -163q-148 0 -237 108v-79h-271zM532 758q-80 0 -126 -80q-45 -78 -45 -202q0 -118 36 -195q46 -97 138 -97q69 0 113 67q54 84 54 222q0 131 -48 210 q-45 75 -122 75z" />
            <glyph unicode="c" horiz-adv-x="942" vert-adv-y="1433" d="M908 611h-275q-25 164 -138 164q-81 0 -124 -82q-45 -85 -45 -224q0 -143 48 -229q41 -72 117 -72q84 0 124 95q18 41 24 99h271q-18 -143 -90 -238q-117 -153 -331 -153q-193 0 -313 125q-131 137 -131 369q0 246 141 386q121 120 309 120q220 0 334 -146 q68 -89 79 -214z" />
            <glyph unicode="d" horiz-adv-x="1028" vert-adv-y="1433" d="M938 0h-271v79q-90 -108 -237 -108q-186 0 -293 163q-92 139 -92 347q0 225 103 356q48 62 120 98q73 36 152 36q140 0 237 -108v502h281v-1365zM496 758q-78 0 -122 -75q-48 -80 -48 -205q0 -159 64 -241q42 -53 103 -53q92 0 137 97q37 78 37 192q0 128 -45 205 q-47 80 -126 80z" />
            <glyph unicode="e" horiz-adv-x="961" vert-adv-y="1433" d="M916 403h-591q12 -244 165 -244q103 0 146 134h266q-19 -83 -71 -156q-117 -166 -337 -166q-202 0 -321 129q-128 138 -128 366q0 212 116 353q125 152 323 152q159 0 270 -101q117 -108 149 -309q10 -65 13 -158zM635 571q-5 65 -23 110q-19 49 -59 79q-30 23 -69 23 q-87 0 -129 -95q-22 -48 -28 -117h308z" />
            <glyph unicode="f" horiz-adv-x="583" vert-adv-y="1433" d="M139 0v758h-121v184h121v84q0 106 12 160q47 211 313 211q8 0 116 -7v-204q-42 6 -72 6q-65 0 -80 -46q-8 -27 -8 -96v-108h149v-184h-149v-758h-281z" />
            <glyph unicode="g" horiz-adv-x="1006" vert-adv-y="1433" d="M72 -81h277q22 -104 134 -104q99 0 134 82q27 65 27 187v42q-87 -110 -228 -110q-167 0 -267 121q-105 129 -105 350t105 353q104 131 273 131q139 0 222 -113v84h271v-807q0 -237 -74 -344q-110 -160 -353 -160q-214 0 -322 101q-75 70 -94 187zM484 766q-73 0 -114 -71 q-45 -76 -45 -196q0 -152 59 -234q37 -52 96 -52q88 0 132 95q36 77 36 187q0 124 -43 195q-46 76 -121 76z" />
            <glyph unicode="h" horiz-adv-x="1002" vert-adv-y="1433" d="M90 0v1365h281v-510q96 116 244 116q172 0 252 -126q49 -78 49 -244v-601h-281v557q0 99 -18 138q-30 63 -98 63q-88 0 -128 -101q-20 -52 -20 -193v-464h-281z" />
            <glyph unicode="i" horiz-adv-x="469" vert-adv-y="1433" d="M94 1092v273h281v-273h-281zM94 0v942h281v-942h-281z" />
            <glyph unicode="j" horiz-adv-x="469" vert-adv-y="1433" d="M-35 -347v213q39 -4 51 -4q54 0 68 38q9 25 9 114v928h281v-965q0 -187 -79 -264q-70 -68 -220 -68q-45 0 -110 8zM93 1092v273h281v-273h-281z" />
            <glyph unicode="k" horiz-adv-x="948" vert-adv-y="1433" d="M90 0v1365h281v-703l252 280h300l-339 -367l366 -575h-296l-241 390l-42 -45v-345h-281z" />
            <glyph unicode="l" horiz-adv-x="469" vert-adv-y="1433" d="M94 0v1365h281v-1365h-281z" />
            <glyph unicode="m" horiz-adv-x="1487" vert-adv-y="1433" d="M90 0v942h271v-88q90 117 238 117q97 0 167 -52q42 -31 66 -82q94 134 267 134q167 0 248 -119q53 -78 53 -215v-637h-281v565q0 85 -13 123q-23 70 -91 70q-84 0 -116 -98q-14 -42 -14 -146v-514h-280v577q0 77 -13 116q-21 65 -86 65q-86 0 -120 -103q-15 -46 -15 -141 v-514h-281z" />
            <glyph unicode="n" horiz-adv-x="1002" vert-adv-y="1433" d="M90 0v942h271v-87q92 116 246 116q178 0 259 -126q50 -78 50 -244v-601h-281v557q0 98 -19 138q-29 63 -97 63q-88 0 -128 -101q-20 -52 -20 -193v-464h-281z" />
            <glyph unicode="o" horiz-adv-x="992" vert-adv-y="1433" d="M498 971q199 0 323 -133q126 -135 126 -373q0 -232 -134 -369q-122 -125 -316 -125q-206 0 -330 140q-122 136 -122 361q0 218 118 353q127 146 335 146zM495 774q-80 0 -125 -85q-44 -83 -44 -217q0 -140 44 -221q45 -83 127 -83q78 0 121 76q48 84 48 224t-43 219 q-46 87 -128 87z" />
            <glyph unicode="p" horiz-adv-x="1028" vert-adv-y="1433" d="M90 942h271v-79q89 108 237 108q186 0 293 -163q92 -140 92 -348q0 -223 -103 -355q-48 -62 -120 -97q-73 -37 -152 -37q-140 0 -237 108v-434h-281v1297zM535 758q-92 0 -137 -97q-37 -77 -37 -188q0 -130 45 -209q46 -80 127 -80q77 0 121 75q48 81 48 210 q0 154 -64 236q-42 53 -103 53z" />
            <glyph unicode="q" horiz-adv-x="1028" vert-adv-y="1433" d="M657 -355v434q-97 -108 -237 -108q-111 0 -205 69q-170 126 -170 421q0 208 92 347q107 163 293 163q147 0 237 -108v79h271v-1297h-281zM493 758q-69 0 -113 -67q-54 -83 -54 -220q0 -132 48 -212q44 -75 122 -75q81 0 126 80q45 79 45 205q0 115 -37 192 q-45 97 -137 97z" />
            <glyph unicode="r" horiz-adv-x="665" vert-adv-y="1433" d="M90 0v942h271v-120q93 149 233 149q34 0 69 -9v-244q-53 15 -89 15q-124 0 -175 -122q-28 -65 -28 -215v-396h-281z" />
            <glyph unicode="s" horiz-adv-x="892" vert-adv-y="1433" d="M61 284h260q17 -131 138 -131q53 0 83 26q31 27 31 72q0 63 -69 101q-30 17 -123 49q-157 54 -209 93q-102 76 -102 196q0 134 100 210q92 71 251 71q212 0 316 -131q47 -60 62 -144h-261q-26 90 -108 90q-89 0 -89 -83q0 -56 64 -90q28 -14 151 -54q118 -38 181 -86 q100 -75 100 -205q0 -135 -102 -217q-99 -80 -268 -80q-164 0 -256 63q-130 88 -150 250z" />
            <glyph unicode="t" horiz-adv-x="589" vert-adv-y="1433" d="M0 766v176h133v61l189 252h92v-313h163v-176h-163v-446q2 -74 8 -96q12 -44 77 -44q30 0 68 14v-201q-83 -18 -162 -18q-169 0 -230 91q-33 49 -40 142q-2 27 -2 122v436h-133z" />
            <glyph unicode="u" horiz-adv-x="1002" vert-adv-y="1433" d="M912 942v-942h-271v87q-92 -116 -246 -116q-178 0 -259 126q-50 79 -50 244v601h281v-557q0 -98 19 -138q29 -63 96 -63q89 0 128 101q21 53 21 193v464h281z" />
            <glyph unicode="v" horiz-adv-x="840" vert-adv-y="1433" d="M577 0h-308l-285 942h292l150 -600l150 600h281z" />
            <glyph unicode="w" horiz-adv-x="1303" vert-adv-y="1433" d="M536 0h-289l-263 942h294l126 -592l112 592h274l115 -588l126 588h283l-256 -942h-288l-119 582z" />
            <glyph unicode="x" horiz-adv-x="859" vert-adv-y="1433" d="M-3 942h312l120 -222l119 222h305l-272 -439l306 -503h-313l-147 273l-146 -273h-310l300 496z" />
            <glyph unicode="y" horiz-adv-x="871" vert-adv-y="1433" d="M-16 942h298l162 -606l155 606h289l-303 -957q-42 -130 -79 -194q-57 -96 -162 -128q-59 -18 -145 -18q-60 0 -120 10v215q49 -12 86 -12q122 0 122 112q0 40 -17 93z" />
            <glyph unicode="z" horiz-adv-x="837" vert-adv-y="1433" d="M33 0v194l427 545h-394v203h734v-187l-439 -552h468v-203h-796z" />
            <glyph unicode="{" horiz-adv-x="581" vert-adv-y="1433" d="M548 1365v-197h-54q-87 0 -117 -27q-26 -24 -30 -69q-3 -27 -3 -60v-269q0 -111 -37 -168q-22 -34 -83 -71q77 -45 102 -112q18 -48 18 -130v-262q0 -84 16 -110q29 -49 134 -48h54v-197h-83q-106 0 -160 10q-123 23 -166 125q-25 58 -25 154v318q0 93 -30 130 q-28 36 -84 48v162q59 13 85 49q29 38 29 115v331q0 166 97 231q52 35 140 43q38 4 114 4h83z" />
            <glyph unicode="|" vert-adv-y="1433" d="M359 1365h307v-1706h-307v1706z" />
            <glyph unicode="}" horiz-adv-x="580" vert-adv-y="1433" d="M33 -355v197h53q70 -1 105 18q33 17 40 57q5 30 5 83v262q0 88 21 138q26 61 99 104q-67 40 -89 81q-31 57 -31 158v269q0 74 -11 98q-16 37 -58 49q-36 9 -81 9h-53v197h83q105 0 158 -10q125 -24 167 -121q25 -59 25 -147v-331q0 -77 29 -115q27 -36 86 -49v-162 q-56 -12 -84 -48q-31 -37 -31 -130v-318q0 -96 -25 -154q-43 -102 -166 -125q-54 -10 -159 -10h-83z" />
            <glyph unicode="~" horiz-adv-x="1365" vert-adv-y="1433" d="M339 1131l-149 124q40 98 87 161q89 118 216 118q59 0 153 -38q38 -15 138 -58q59 -26 102 -26q76 0 145 127l149 -124q-48 -112 -94 -169q-88 -112 -211 -112q-47 0 -128 33q-49 19 -148 61q-73 30 -116 30q-54 0 -93 -49q-23 -28 -51 -78z" />
            <glyph unicode="&#xa0;" horiz-adv-x="300" vert-adv-y="1433" />
            <glyph unicode="&#xa2;" horiz-adv-x="970" vert-adv-y="1433" d="M564 997v-614q98 44 116 198h257q-23 -178 -134 -283q-91 -86 -239 -105v-152h-132v153q-116 16 -199 75q-188 137 -188 416q0 197 93 327q106 149 294 173v139h132v-139q134 -17 220 -79q134 -98 151 -277h-262q-22 131 -109 168zM432 987q-133 -73 -133 -300 q0 -148 63 -239q22 -31 70 -59v598z" />
            <glyph unicode="&#xa3;" horiz-adv-x="921" vert-adv-y="1433" d="M18 533v199h147q-11 17 -33 48q-89 131 -89 261q0 161 125 262q109 89 278 89q262 0 360 -181q46 -86 49 -198h-253q-5 146 -155 146q-70 0 -107 -39q-39 -43 -39 -104q0 -75 77 -189q43 -64 62 -95h285v-199h-237q-8 -92 -53 -172q-20 -37 -126 -164q91 63 138 63 q29 0 81 -40q30 -23 58 -23q80 0 91 120h216q-9 -153 -64 -239q-68 -107 -197 -107q-68 0 -156 43q-69 33 -132 33q-77 0 -152 -41q-19 -10 -58 -33l-107 172q212 144 212 333q0 22 -4 55h-217z" />
            <glyph unicode="&#xa5;" horiz-adv-x="1131" vert-adv-y="1433" d="M700 0h-268v227h-292v177h292v96h-292v177h292l-350 688h307l180 -396l180 396h301l-348 -688h289v-177h-291v-96h291v-177h-291v-227z" />
            <glyph unicode="&#xa8;" vert-adv-y="1433" d="M802 1324v-246h-238v246h238zM460 1324v-246h-237v246h237z" />
            <glyph unicode="&#xa9;" horiz-adv-x="1412" vert-adv-y="1433" d="M839 607h199q-7 -99 -35 -162q-85 -191 -293 -191q-152 0 -243 104q-108 125 -108 323q0 194 104 317q97 113 252 113q166 0 258 -131q54 -77 60 -181h-197q-24 140 -124 140q-73 0 -111 -68q-42 -75 -42 -188q0 -116 44 -191q38 -66 106 -66q76 0 107 75q16 40 23 106z M713 1254q-212 0 -358 -164q-68 -75 -107 -178q-43 -112 -43 -231q0 -235 146 -403q145 -167 353 -167q212 0 359 171q143 166 143 399q0 238 -146 406q-64 73 -143 114q-100 53 -204 53zM715 1386q181 0 338 -113q144 -104 222 -273q68 -151 68 -319q0 -285 -183 -491 q-186 -210 -456 -210q-265 0 -449 205q-85 94 -134 218q-53 135 -53 277q0 204 99 379q92 162 249 250q138 77 299 77z" />
            <glyph unicode="&#xab;" horiz-adv-x="770" vert-adv-y="1433" d="M355 893v-249l-147 -140l147 -134v-243l-273 255v249zM668 890v-248l-145 -136l145 -134v-241l-272 254v248z" />
            <glyph unicode="&#xad;" horiz-adv-x="453" vert-adv-y="1433" d="M453 633v-246h-453v246h453z" />
            <glyph unicode="&#xae;" horiz-adv-x="1412" vert-adv-y="1433" d="M713 1254q-212 0 -358 -164q-68 -75 -107 -178q-43 -112 -43 -231q0 -160 76 -301q76 -140 203 -212q103 -57 220 -57q212 0 359 171q143 166 143 399q0 238 -146 406q-64 73 -143 114q-99 53 -204 53zM715 1386q181 0 338 -113q144 -104 222 -273q68 -151 68 -319 q0 -285 -183 -491q-186 -210 -456 -210q-265 0 -449 205q-85 94 -134 218q-53 135 -53 277q0 204 99 379q92 162 249 250q138 77 299 77zM402 273v819h323q126 0 197 -55q81 -64 81 -180q0 -126 -97 -195q37 -22 56 -55q19 -32 27 -88q5 -29 11 -119q4 -65 16 -90 q3 -6 22 -37h-211q-14 31 -17 58q-2 11 -7 101q-6 98 -38 130q-21 21 -78 21h-85v-310h-200zM602 739h81q73 0 97 29q23 26 23 69q0 53 -36 77q-22 15 -80 15h-85v-190z" />
            <glyph unicode="&#xb4;" vert-adv-y="1433" d="M783 1365l-199 -273h-205l184 273h220z" />
            <glyph unicode="&#xb8;" vert-adv-y="1433" d="M377 0h117l-40 -108q24 12 59 12q83 0 135 -43q48 -40 48 -105q0 -71 -51 -116q-56 -50 -155 -50q-108 0 -159 56q-23 25 -28 55h129q7 -31 51 -31q68 0 68 77q0 36 -19 59q-18 21 -49 21q-37 0 -48 -27h-129z" />
            <glyph unicode="&#xbb;" horiz-adv-x="770" vert-adv-y="1433" d="M414 893l274 -261v-249l-274 -256v242l147 135l-147 139v250zM102 890l270 -257v-248l-270 -254v240l144 135l-144 135v249z" />
            <glyph unicode="&#xd3;" horiz-adv-x="1278" vert-adv-y="1433" d="M642 1396q243 0 400 -176q179 -199 179 -538q0 -290 -135 -485q-80 -115 -202 -176q-109 -54 -242 -54q-290 0 -453 235q-132 190 -132 490q0 326 171 520q162 184 414 184zM640 1146q-136 0 -210 -127q-80 -138 -80 -329q0 -210 79 -346q36 -62 106 -100q51 -27 108 -27 q83 0 150 58t104 184q31 106 31 227q0 198 -78 333q-74 127 -210 127zM923 1720l-198 -246h-233l184 246h247z" />
            <glyph unicode="&#xf3;" horiz-adv-x="992" vert-adv-y="1433" d="M498 971q199 0 323 -133q126 -135 126 -373q0 -232 -134 -369q-122 -125 -316 -125q-206 0 -330 140q-122 136 -122 361q0 218 118 353q127 146 335 146zM495 774q-80 0 -125 -85q-44 -83 -44 -217q0 -140 44 -221q45 -83 127 -83q78 0 121 76q48 84 48 224t-43 219 q-46 87 -128 87zM767 1365l-199 -273h-205l184 273h220z" />
            <glyph unicode="&#x104;" horiz-adv-x="1157" vert-adv-y="1433" d="M1157 0q-90 -78 -90 -165q0 -91 93 -91q19 0 71 16v-119l-10 -3q-57 -19 -106 -19q-124 0 -180 83q-28 43 -28 97q0 98 116 201h-167l-85 305h-389l-86 -305h-300l433 1365h300l432 -1365h-4zM445 526h265l-132 471z" />
            <glyph unicode="&#x105;" horiz-adv-x="980" vert-adv-y="1433" d="M934 1q-91 -83 -91 -166q0 -91 93 -91q20 0 71 16v-119l-10 -3q-57 -19 -106 -19q-124 0 -180 83q-28 43 -28 96q0 96 109 196q-79 18 -127 96q-47 -49 -85 -71q-82 -48 -202 -48q-137 0 -218 64q-98 77 -98 212q0 148 111 234q82 64 238 81q68 7 207 11v75 q0 147 -125 147q-117 0 -128 -143h-268q8 149 104 231q103 88 293 88q226 0 328 -108q53 -55 65 -147q4 -35 4 -141v-315q0 -54 12 -67q13 -14 29 -14q9 0 30 11v-178q-16 -7 -28 -11zM618 429q-98 -4 -153 -19q-122 -32 -122 -141q0 -50 27 -79q24 -26 69 -26q93 0 145 88 q34 56 34 127v50z" />
            <glyph unicode="&#x106;" horiz-adv-x="1200" vert-adv-y="1433" d="M866 529h293q-16 -217 -122 -363q-145 -199 -408 -199q-249 0 -395 171q-177 209 -177 541q0 326 171 530q157 187 408 187q269 0 419 -216q85 -123 96 -274h-290q-14 79 -43 129q-64 111 -186 111q-136 0 -208 -129q-74 -134 -74 -335q0 -204 77 -340q70 -125 202 -125 q114 0 175 99q46 76 62 213zM884 1720l-198 -246h-233l184 246h247z" />
            <glyph unicode="&#x107;" horiz-adv-x="942" vert-adv-y="1433" d="M908 611h-275q-25 164 -138 164q-81 0 -124 -82q-45 -85 -45 -224q0 -143 48 -229q41 -72 117 -72q84 0 124 95q18 41 24 99h271q-18 -143 -90 -238q-117 -153 -331 -153q-193 0 -313 125q-131 137 -131 369q0 246 141 386q121 120 309 120q220 0 334 -146 q68 -89 79 -214zM743 1365l-199 -273h-205l184 273h220z" />
            <glyph unicode="&#x118;" horiz-adv-x="1065" vert-adv-y="1433" d="M981 0q-91 -76 -91 -165q0 -91 94 -91q19 0 71 16v-119l-10 -3q-57 -19 -106 -19q-125 0 -181 83q-28 43 -28 97q0 97 117 201h-741v1365h871v-250h-578v-292h528v-238h-528v-335h590v-250h-8z" />
            <glyph unicode="&#x119;" horiz-adv-x="961" vert-adv-y="1433" d="M649 -4q-86 -74 -86 -161q0 -91 94 -91q20 0 70 16v-119l-10 -3q-57 -19 -106 -19q-124 0 -180 83q-28 42 -28 96q0 92 85 173q-146 0 -257 78q-91 64 -139 175q-47 110 -47 242q0 212 116 353q125 152 323 152q159 0 270 -101q117 -108 149 -309q10 -65 12 -158h-590 q11 -244 165 -244q102 0 146 134h266q-20 -83 -71 -156q-70 -99 -182 -141zM635 571q-6 65 -24 110q-19 49 -58 79q-30 23 -70 23q-86 0 -129 -95q-22 -48 -28 -117h309z" />
            <glyph unicode="&#x141;" horiz-adv-x="987" vert-adv-y="1433" d="M0 385v234l106 79v667h293v-468l195 141v-234l-195 -141v-409h537v-254h-830v464z" />
            <glyph unicode="&#x142;" horiz-adv-x="486" vert-adv-y="1433" d="M0 425v224l102 92v624h281v-390l103 91v-224l-103 -91v-751h-281v517z" />
            <glyph unicode="&#x143;" horiz-adv-x="1218" vert-adv-y="1433" d="M106 0v1365h296l428 -878v878h281v-1365h-293l-431 877v-877h-281zM893 1720l-198 -246h-233l184 246h247z" />
            <glyph unicode="&#x144;" horiz-adv-x="1002" vert-adv-y="1433" d="M90 0v942h271v-87q92 116 246 116q178 0 259 -126q50 -78 50 -244v-601h-281v557q0 98 -19 138q-29 63 -97 63q-88 0 -128 -101q-20 -52 -20 -193v-464h-281zM772 1365l-199 -273h-205l184 273h220z" />
            <glyph unicode="&#x15a;" horiz-adv-x="1062" vert-adv-y="1433" d="M41 399h295q12 -80 37 -119q52 -80 150 -80q87 0 135 54q42 46 42 116q0 79 -67 134q-32 26 -81 47q-14 6 -101 37q-168 59 -243 118q-149 118 -149 309q0 164 104 267q116 114 321 114q256 0 384 -175q60 -82 79 -216h-286q-10 79 -50 115q-48 42 -129 42 q-69 0 -108 -33q-45 -37 -45 -105q0 -77 68 -124q50 -36 198 -84q173 -56 268 -131q138 -110 138 -296t-128 -302q-133 -120 -355 -120q-265 0 -395 199q-66 102 -82 233zM816 1720l-198 -246h-233l184 246h247z" />
            <glyph unicode="&#x15b;" horiz-adv-x="892" vert-adv-y="1433" d="M61 284h260q17 -131 138 -131q53 0 83 26q31 27 31 72q0 63 -69 101q-30 17 -123 49q-157 54 -209 93q-102 76 -102 196q0 134 100 210q92 71 251 71q212 0 316 -131q47 -60 62 -144h-261q-26 90 -108 90q-89 0 -89 -83q0 -56 64 -90q28 -14 151 -54q118 -38 181 -86 q100 -75 100 -205q0 -135 -102 -217q-99 -80 -268 -80q-164 0 -256 63q-130 88 -150 250zM717 1365l-199 -273h-205l184 273h220z" />
            <glyph unicode="&#x179;" horiz-adv-x="1056" vert-adv-y="1433" d="M33 0v238l613 877h-569v250h924v-222l-620 -889h638v-254h-986zM813 1720l-198 -246h-233l184 246h247z" />
            <glyph unicode="&#x17a;" horiz-adv-x="837" vert-adv-y="1433" d="M33 0v194l427 545h-394v203h734v-187l-439 -552h468v-203h-796zM690 1365l-199 -273h-205l184 273h220z" />
            <glyph unicode="&#x17b;" horiz-adv-x="1056" vert-adv-y="1433" d="M33 0v238l613 877h-569v250h924v-222l-620 -889h638v-254h-986zM647 1693v-246h-237v246h237z" />
            <glyph unicode="&#x17c;" horiz-adv-x="837" vert-adv-y="1433" d="M33 0v194l427 545h-394v203h734v-187l-439 -552h468v-203h-796zM537 1324v-246h-237v246h237z" />
            <glyph unicode="&#x2c6;" vert-adv-y="1433" d="M808 1092h-205l-95 147l-95 -147h-197l182 273h228z" />
            <glyph unicode="&#x2d9;" vert-adv-y="1433" d="M630 1324v-246h-237v246h237z" />
            <glyph unicode="&#x2da;" vert-adv-y="1433" d="M514 1349q-37 0 -62 -26t-25 -65q0 -37 25 -64q24 -26 60 -26t61 27q24 27 24 63q0 39 -25 65t-58 26zM513 1465q82 0 141 -59q59 -60 59 -145q0 -83 -58 -142q-60 -61 -145 -61q-86 0 -145 59q-59 60 -59 144q0 87 61 146q60 58 146 58z" />
            <glyph unicode="&#x2dc;" vert-adv-y="1433" d="M802 1359q-34 -254 -187 -254q-42 0 -91 22q-15 7 -76 42q-26 15 -45 15q-39 0 -54 -85h-126q8 64 24 109q30 83 85 122q35 25 78 25q45 0 111 -35q70 -38 99 -39q33 -2 56 78h126z" />
            <glyph unicode="&#x2000;" horiz-adv-x="860" vert-adv-y="0" />
            <glyph unicode="&#x2001;" horiz-adv-x="1720" vert-adv-y="0" />
            <glyph unicode="&#x2002;" horiz-adv-x="860" vert-adv-y="0" />
            <glyph unicode="&#x2003;" horiz-adv-x="1720" vert-adv-y="0" />
            <glyph unicode="&#x2004;" horiz-adv-x="573" vert-adv-y="0" />
            <glyph unicode="&#x2005;" horiz-adv-x="430" vert-adv-y="0" />
            <glyph unicode="&#x2006;" horiz-adv-x="286" vert-adv-y="0" />
            <glyph unicode="&#x2007;" horiz-adv-x="286" vert-adv-y="0" />
            <glyph unicode="&#x2008;" horiz-adv-x="215" vert-adv-y="0" />
            <glyph unicode="&#x2009;" horiz-adv-x="344" vert-adv-y="0" />
            <glyph unicode="&#x200a;" horiz-adv-x="95" vert-adv-y="0" />
            <glyph unicode="&#x2010;" horiz-adv-x="453" vert-adv-y="1433" d="M453 633v-246h-453v246h453z" />
            <glyph unicode="&#x2011;" horiz-adv-x="453" vert-adv-y="1433" d="M453 633v-246h-453v246h453z" />
            <glyph unicode="&#x2012;" horiz-adv-x="453" vert-adv-y="1433" d="M453 633v-246h-453v246h453z" />
            <glyph unicode="&#x2013;" horiz-adv-x="996" vert-adv-y="1433" d="M895 633v-246h-793v246h793z" />
            <glyph unicode="&#x2014;" horiz-adv-x="1487" vert-adv-y="1433" d="M1400 633v-246h-1310v246h1310z" />
            <glyph unicode="&#x2018;" horiz-adv-x="546" vert-adv-y="1433" d="M123 772v229q0 136 37 212q36 73 119 124q59 37 144 49v-144q-120 -33 -127 -176h127v-294h-300z" />
            <glyph unicode="&#x2019;" horiz-adv-x="546" vert-adv-y="1433" d="M423 1365v-228q0 -136 -37 -213q-35 -73 -119 -124q-59 -37 -144 -49v144q120 32 127 176h-127v294h300z" />
            <glyph unicode="&#x201a;" horiz-adv-x="434" vert-adv-y="1433" d="M367 294v-228q0 -136 -37 -213q-35 -73 -119 -124q-59 -37 -144 -48v143q120 32 127 176h-127v294h300z" />
            <glyph unicode="&#x201c;" horiz-adv-x="942" vert-adv-y="1433" d="M123 772v229q0 136 37 212q36 73 119 124q59 37 144 49v-144q-120 -33 -127 -176h127v-294h-300zM519 772v229q0 136 37 212q36 73 119 124q59 37 144 49v-144q-120 -32 -127 -176h127v-294h-300z" />
            <glyph unicode="&#x201d;" horiz-adv-x="942" vert-adv-y="1433" d="M423 1365v-228q0 -136 -37 -213q-35 -73 -119 -124q-59 -37 -144 -49v144q120 32 127 176h-127v294h300zM819 1365v-228q0 -137 -37 -213q-36 -73 -119 -124q-59 -37 -144 -49v144q120 32 127 176h-127v294h300z" />
            <glyph unicode="&#x201e;" horiz-adv-x="830" vert-adv-y="1433" d="M367 294v-228q0 -136 -37 -213q-35 -73 -119 -124q-59 -37 -144 -48v143q120 32 127 176h-127v294h300zM763 294v-228q0 -137 -37 -213q-36 -73 -119 -124q-59 -37 -144 -48v143q120 32 127 176h-127v294h300z" />
            <glyph unicode="&#x2026;" horiz-adv-x="1630" vert-adv-y="1433" d="M423 294v-294h-300v294h300zM965 294v-294h-300v294h300zM1507 294v-294h-300v294h300z" />
            <glyph unicode="&#x202f;" horiz-adv-x="344" vert-adv-y="0" />
            <glyph unicode="&#x2039;" horiz-adv-x="455" vert-adv-y="1433" d="M353 891v-248l-144 -136l144 -136v-242l-271 252v252z" />
            <glyph unicode="&#x203a;" horiz-adv-x="455" vert-adv-y="1433" d="M102 891l271 -257v-252l-271 -253v241l144 137l-144 136v248z" />
            <glyph unicode="&#x205f;" horiz-adv-x="430" vert-adv-y="0" />
            <glyph unicode="&#x20ac;" horiz-adv-x="1283" vert-adv-y="1433" d="M518 460q66 -244 268 -244q79 0 138 33q40 22 97 69l175 -170q-52 -46 -86 -71q-146 -110 -346 -110q-343 0 -494 338q-32 71 -51 155h-190l78 171h90q-1 30 -1 47q0 16 1 43h-156l78 171h99q11 52 31 110q72 201 229 309q127 86 307 86q215 0 394 -131l-102 -240 q-76 61 -121 83q-78 39 -162 39q-158 0 -230 -131q-31 -56 -49 -125h496l-72 -171h-449q-1 -25 -1 -39q0 -20 2 -51h410l-72 -171h-311z" />
            <glyph unicode="&#x2122;" horiz-adv-x="1481" vert-adv-y="1433" d="M202 546v647h-195v172h592v-172h-197v-647h-200zM655 546v819h258l133 -502l129 502h257v-819h-193v453l-113 -453h-162l-116 450v-450h-193z" />
            <glyph unicode="&#x25fc;" horiz-adv-x="940" vert-adv-y="1880" d="M0 940h940v-940h-940v940z" />
            <glyph unicode="&#xefed;" vert-adv-y="1433" d="M630 1693v-246h-237v246h237z" />
            <glyph unicode="&#xf6c9;" vert-adv-y="1433" d="M797 1720l-198 -246h-233l184 246h247z" />
            </font>
</defs>
</svg>
