<svg xmlns="http://www.w3.org/2000/svg" width="37" height="38" viewBox="0 0 37 38">
  <defs>
    <style>
      .cls-1 {
        fill: #505050;
      }

      .cls-1, .cls-3 {
        fill-rule: evenodd;
      }

      .cls-2 {
        fill: #d61978;
      }

      .cls-3 {
        fill: #fff;
      }
    </style>
  </defs>
  <path id="Rounded_Rectangle_1" data-name="Rounded Rectangle 1" class="cls-1" d="M11,0H27.883L37,9.114V35a3,3,0,0,1-3,3H11a3,3,0,0,1-3-3V3A3,3,0,0,1,11,0Zm1,3H26.1L34,11.142V34a1,1,0,0,1-1,1H12a1,1,0,0,1-1-1V4A1,1,0,0,1,12,3Z"/>
  <rect class="cls-2" y="7" width="22" height="13"/>
  <path id="PDF" class="cls-3" d="M5.526,14.462a2.354,2.354,0,0,0,1.716-.609,2.148,2.148,0,0,0,.625-1.612,2.164,2.164,0,0,0-.625-1.617,2.344,2.344,0,0,0-1.716-.614H3.006V17H4.275V14.462H5.526ZM4.275,11.09H5.526a0.985,0.985,0,0,1,.806.329,1.264,1.264,0,0,1,.271.832,1.2,1.2,0,0,1-.274.813,1,1,0,0,1-.8.319H4.275V11.09ZM10.972,17a2.488,2.488,0,0,0,1.911-.813,2.97,2.97,0,0,0,.752-2.1V12.927a2.981,2.981,0,0,0-.751-2.1,2.481,2.481,0,0,0-1.911-.818H8.8V17h2.172ZM10.907,11.09a1.268,1.268,0,0,1,1.069.508,2.117,2.117,0,0,1,.387,1.318v1.165a2.134,2.134,0,0,1-.387,1.327,1.268,1.268,0,0,1-1.069.508H10.069V11.09h0.838Zm7.64,1.924H15.9V11.09H18.99V10.011H14.63V17H15.9v-2.9h2.649V13.014Z"/>
</svg>
